<?xml version="1.0" standalone="no"?>
<!DOCTYPE svg PUBLIC "-//W3C//DTD SVG 20010904//EN"
 "http://www.w3.org/TR/2001/REC-SVG-20010904/DTD/svg10.dtd">
<svg version="1.0" xmlns="http://www.w3.org/2000/svg"
 width="300.000000pt" height="300.000000pt" viewBox="0 0 300.000000 300.000000"
 preserveAspectRatio="xMidYMid meet">
<metadata>
Created by potrace 1.10, written by Peter Selinger 2001-2011
</metadata>
<g transform="translate(0.000000,300.000000) scale(0.100000,-0.100000)"
fill="#000000" stroke="none">
<path d="M1177 1875 c-47 -18 -90 -47 -145 -99 -111 -105 -92 -189 49 -217 53
-10 113 -41 99 -51 -3 -1 -40 -20 -82 -41 -101 -50 -168 -109 -168 -147 0 -75
121 -63 222 20 40 33 78 102 78 142 0 17 8 28 25 36 36 16 35 17 35 -27 0 -31
6 -44 26 -60 15 -12 36 -21 48 -21 27 0 73 31 109 72 l28 33 -6 -40 c-5 -29
-20 -54 -56 -92 -59 -62 -88 -122 -89 -180 0 -43 17 -63 54 -63 24 0 76 50 92
89 18 43 44 161 44 200 0 17 11 37 28 54 33 32 46 34 37 8 -6 -20 24 -61 44
-61 9 0 46 41 68 76 10 17 12 14 13 -21 0 -45 8 -62 30 -65 31 -5 41 1 70 42
l30 41 0 -54 c0 -103 60 -134 119 -62 32 39 101 163 101 182 0 26 -18 6 -54
-64 -21 -40 -52 -88 -69 -106 -27 -30 -30 -31 -39 -14 -7 11 -8 51 -5 101 5
75 9 88 46 141 72 106 105 208 76 237 -52 52 -113 -41 -156 -238 -15 -68 -29
-101 -55 -138 -35 -48 -54 -60 -54 -35 0 13 34 139 45 169 8 20 -33 37 -45 18
-6 -9 -13 -9 -31 0 -31 17 -79 -9 -107 -58 -11 -21 -35 -50 -52 -67 l-32 -30
3 67 c4 77 -11 108 -37 74 -8 -11 -14 -34 -14 -51 0 -46 -88 -138 -128 -133
-23 3 -27 8 -30 41 -3 32 0 37 18 37 27 0 90 61 90 87 0 67 -94 53 -138 -20
-11 -20 -33 -37 -55 -45 -35 -13 -39 -12 -68 12 -28 24 -44 30 -139 53 -28 7
-36 15 -38 36 -6 52 150 186 236 203 27 6 32 4 32 -13 0 -29 -67 -112 -95
-119 -29 -7 -30 -13 -11 -39 13 -18 14 -18 39 2 88 69 124 163 75 197 -27 19
-60 19 -111 1z m810 -158 c-19 -41 -39 -77 -45 -81 -15 -9 12 81 46 159 26 58
27 59 30 28 2 -20 -9 -58 -31 -106z m-567 -113 c0 -17 -58 -80 -66 -71 -11 11
39 87 58 87 4 0 8 -7 8 -16z m330 5 c0 -20 -93 -154 -98 -141 -6 18 24 94 49
126 21 26 49 35 49 15z m-590 -174 c-11 -19 -35 -46 -52 -60 -95 -80 -207 -89
-124 -10 42 39 189 125 194 113 2 -4 -6 -24 -18 -43z m306 -121 c-24 -87 -52
-139 -77 -139 -20 0 -23 47 -6 86 16 37 88 139 99 139 3 0 -4 -39 -16 -86z"/>
<path d="M1520 1711 c-14 -27 -13 -38 4 -44 9 -4 21 5 31 20 14 21 15 27 4 34
-21 13 -27 11 -39 -10z"/>
<path d="M1264 1346 c-52 -9 -82 -20 -114 -44 -24 -18 -50 -32 -56 -32 -7 0
-15 -3 -18 -8 -4 -7 233 23 259 32 6 2 18 18 28 35 18 31 18 31 -5 30 -13 -1
-55 -6 -94 -13z m16 -28 c0 -8 -18 -14 -47 -16 -53 -3 -54 7 -1 15 18 3 35 7
37 9 7 7 11 4 11 -8z"/>
<path d="M1556 1334 c-4 -15 -6 -28 -4 -30 2 -1 51 -6 108 -9 109 -7 398 -42
412 -51 4 -3 8 -1 8 4 0 31 -337 112 -466 112 -48 0 -52 -2 -58 -26z"/>
</g>
</svg>
